<mxfile host="app.diagrams.net" agent="Mozilla/5.0 (X11; Linux x86_64) AppleWebKit/537.36 (KHTML, like Gecko) Chrome/122.0.0.0 Safari/537.36" version="26.3.0">
  <diagram id="codeviz-diagram" name="System Diagram">
    <mxGraphModel dx="3138" dy="1560" grid="1" gridSize="10" guides="1" tooltips="1" connect="1" arrows="1" fold="1" page="1" pageScale="1" pageWidth="1169" pageHeight="827" math="0" shadow="0">
      <root>
        <mxCell id="0" />
        <mxCell id="1" parent="0" />
        <mxCell id="19" value="" style="html=1;whiteSpace=wrap;container=1;fillColor=#dae8fc;strokeColor=#6c8ebf;dashed=1;fillOpacity=20;strokeWidth=2;containerType=none;recursiveResize=0;movable=1;resizable=1;autosize=0;dropTarget=0" parent="1" vertex="1">
          <mxGeometry x="220.1578312295738" y="1152" width="684.4734936887214" height="244.07891561478687" as="geometry" />
        </mxCell>
        <mxCell id="36" value="Target APIs&lt;br&gt;Web Services" style="rounded=1;whiteSpace=wrap;html=1;fillColor=#f5f5f5" parent="19" vertex="1">
          <mxGeometry x="436.3156624591476" y="120" width="168.1578312295738" height="84.0789156147869" as="geometry" />
        </mxCell>
        <mxCell id="37" value="Target Web UIs&lt;br&gt;Web Applications" style="rounded=1;whiteSpace=wrap;html=1;fillColor=#f5f5f5" parent="19" vertex="1">
          <mxGeometry x="238.1578312295738" y="120" width="168.1578312295738" height="84.0789156147869" as="geometry" />
        </mxCell>
        <mxCell id="38" value="Containerization Services&lt;br&gt;Docker Engine, etc." style="rounded=1;whiteSpace=wrap;html=1;fillColor=#f5f5f5" parent="19" vertex="1">
          <mxGeometry x="40" y="120" width="168.1578312295738" height="84.0789156147869" as="geometry" />
        </mxCell>
        <mxCell id="19_label" value="External Systems&lt;br&gt;Various" style="edgeLabel;html=1;align=center;verticalAlign=middle;resizable=0;labelBackgroundColor=white;spacing=5" parent="1" vertex="1">
          <mxGeometry x="228.1578312295738" y="1160" width="608.4734936887214" height="24" as="geometry" />
        </mxCell>
        <mxCell id="20" value="" style="html=1;whiteSpace=wrap;container=1;fillColor=#dae8fc;strokeColor=#6c8ebf;dashed=1;fillOpacity=20;strokeWidth=2;containerType=none;recursiveResize=0;movable=1;resizable=1;autosize=0;dropTarget=0" parent="1" vertex="1">
          <mxGeometry x="884.6313249182951" y="1152" width="486.31566245914746" height="244.07891561478687" as="geometry" />
        </mxCell>
        <mxCell id="34" value="Common Utilities Directory&lt;br&gt;Robot Framework, Python" style="rounded=1;whiteSpace=wrap;html=1;fillColor=#f5f5f5" parent="20" vertex="1">
          <mxGeometry x="238.1578312295738" y="120" width="168.1578312295738" height="84.0789156147869" as="geometry" />
        </mxCell>
        <mxCell id="35" value="Global Settings File&lt;br&gt;Robot Framework" style="rounded=1;whiteSpace=wrap;html=1;fillColor=#f5f5f5" parent="20" vertex="1">
          <mxGeometry x="40" y="120" width="168.1578312295738" height="84.0789156147869" as="geometry" />
        </mxCell>
        <mxCell id="20_label" value="Shared Libraries&lt;br&gt;Robot Framework, Python" style="edgeLabel;html=1;align=center;verticalAlign=middle;resizable=0;labelBackgroundColor=white;spacing=5" parent="1" vertex="1">
          <mxGeometry x="892.6313249182951" y="1160" width="410.31566245914746" height="24" as="geometry" />
        </mxCell>
        <mxCell id="21" value="" style="html=1;whiteSpace=wrap;container=1;fillColor=#fff2cc;strokeColor=#d6b656;dashed=1;fillOpacity=20;strokeWidth=2;containerType=none;recursiveResize=0;movable=1;resizable=1;autosize=0;dropTarget=0" parent="1" vertex="1">
          <mxGeometry x="22" y="427" width="684.4734936887214" height="614.0789156147869" as="geometry" />
        </mxCell>
        <mxCell id="29" value="GUI Entry Script&lt;br&gt;Shell Script" style="rounded=1;whiteSpace=wrap;html=1;fillColor=#f5f5f5" parent="21" vertex="1">
          <mxGeometry x="90.44734936887212" y="120" width="168.1578312295738" height="84.0789156147869" as="geometry" />
        </mxCell>
        <mxCell id="30" value="GUI Main Suite File&lt;br&gt;Robot Framework" style="rounded=1;whiteSpace=wrap;html=1;fillColor=#f5f5f5" parent="21" vertex="1">
          <mxGeometry x="90.44734936887212" y="305" width="168.1578312295738" height="84.0789156147869" as="geometry" />
        </mxCell>
        <mxCell id="31" value="GUI Keywords Library&lt;br&gt;Robot Framework" style="rounded=1;whiteSpace=wrap;html=1;fillColor=#f5f5f5" parent="21" vertex="1">
          <mxGeometry x="436.3156624591476" y="470" width="168.1578312295738" height="84.0789156147869" as="geometry" />
        </mxCell>
        <mxCell id="32" value="GUI Resource Directory&lt;br&gt;YAML, Robot Framework" style="rounded=1;whiteSpace=wrap;html=1;fillColor=#f5f5f5" parent="21" vertex="1">
          <mxGeometry x="238.1578312295738" y="480" width="168.1578312295738" height="84.0789156147869" as="geometry" />
        </mxCell>
        <mxCell id="33" value="GUI Config File&lt;br&gt;Robot Framework" style="rounded=1;whiteSpace=wrap;html=1;fillColor=#f5f5f5" parent="21" vertex="1">
          <mxGeometry x="40" y="490" width="168.1578312295738" height="84.0789156147869" as="geometry" />
        </mxCell>
        <mxCell id="21_label" value="GUI Test Execution&lt;br&gt;Robot Framework, Shell" style="edgeLabel;html=1;align=center;verticalAlign=middle;resizable=0;labelBackgroundColor=white;spacing=5" parent="1" vertex="1">
          <mxGeometry x="30" y="435" width="608.4734936887214" height="24" as="geometry" />
        </mxCell>
        <mxCell id="22" value="" style="html=1;whiteSpace=wrap;container=1;fillColor=#e1d5e7;strokeColor=#9673a6;dashed=1;fillOpacity=20;strokeWidth=2;containerType=none;recursiveResize=0;movable=1;resizable=1;autosize=0;dropTarget=0" parent="1" vertex="1">
          <mxGeometry x="696.4734936887214" y="427" width="486.31566245914746" height="614.0789156147869" as="geometry" />
        </mxCell>
        <mxCell id="25" value="API Entry Script&lt;br&gt;Shell Script" style="rounded=1;whiteSpace=wrap;html=1;fillColor=#f5f5f5" parent="22" vertex="1">
          <mxGeometry x="82.03945780739345" y="120" width="168.1578312295738" height="84.0789156147869" as="geometry" />
        </mxCell>
        <mxCell id="26" value="API Main Suite File&lt;br&gt;Robot Framework" style="rounded=1;whiteSpace=wrap;html=1;fillColor=#f5f5f5" parent="22" vertex="1">
          <mxGeometry x="82.03945780739345" y="305" width="168.1578312295738" height="84.0789156147869" as="geometry" />
        </mxCell>
        <mxCell id="27" value="API Keywords Library&lt;br&gt;Robot Framework" style="rounded=1;whiteSpace=wrap;html=1;fillColor=#f5f5f5" parent="22" vertex="1">
          <mxGeometry x="40" y="490" width="168.1578312295738" height="84.0789156147869" as="geometry" />
        </mxCell>
        <mxCell id="28" value="API Config File&lt;br&gt;Robot Framework" style="rounded=1;whiteSpace=wrap;html=1;fillColor=#f5f5f5" parent="22" vertex="1">
          <mxGeometry x="238.1578312295738" y="470" width="168.1578312295738" height="84.0789156147869" as="geometry" />
        </mxCell>
        <mxCell id="22_label" value="API Test Execution&lt;br&gt;Robot Framework, Shell" style="edgeLabel;html=1;align=center;verticalAlign=middle;resizable=0;labelBackgroundColor=white;spacing=5" parent="1" vertex="1">
          <mxGeometry x="704.4734936887214" y="435" width="410.31566245914746" height="24" as="geometry" />
        </mxCell>
        <mxCell id="23" value="User&lt;br&gt;External Actor" style="rounded=1;whiteSpace=wrap;html=1;fillColor=#f5f5f5" parent="1" vertex="1">
          <mxGeometry x="397.45384522756456" y="12" width="168.1578312295738" height="84.0789156147869" as="geometry" />
        </mxCell>
        <mxCell id="24" value="Parallel Test Orchestrator&lt;br&gt;Shell Script" style="rounded=1;whiteSpace=wrap;html=1;fillColor=#f5f5f5" parent="1" vertex="1">
          <mxGeometry x="397.45384522756456" y="237" width="168.1578312295738" height="84.0789156147869" as="geometry" />
        </mxCell>
        <mxCell id="edge-13" style="edgeStyle=orthogonalEdgeStyle;rounded=1;orthogonalLoop=1;jettySize=auto;html=1;strokeColor=#808080;strokeWidth=2;jumpStyle=arc;jumpSize=10;spacing=15;labelBackgroundColor=white;labelBorderColor=none" parent="1" source="23" target="24" edge="1">
          <mxGeometry relative="1" as="geometry" />
        </mxCell>
        <mxCell id="edge-13_label" value="initiates tests" style="edgeLabel;html=1;align=center;verticalAlign=middle;resizable=0;points=[];" parent="edge-13" vertex="1" connectable="0">
          <mxGeometry x="-0.2" y="10" relative="1" as="geometry">
            <mxPoint as="offset" />
          </mxGeometry>
        </mxCell>
        <mxCell id="edge-14" style="edgeStyle=orthogonalEdgeStyle;rounded=1;orthogonalLoop=1;jettySize=auto;html=1;strokeColor=#808080;strokeWidth=2;jumpStyle=arc;jumpSize=10;spacing=15;labelBackgroundColor=white;labelBorderColor=none" parent="1" source="24" target="25" edge="1">
          <mxGeometry relative="1" as="geometry" />
        </mxCell>
        <mxCell id="edge-14_label" value="triggers" style="edgeLabel;html=1;align=center;verticalAlign=middle;resizable=0;points=[];" parent="edge-14" vertex="1" connectable="0">
          <mxGeometry x="-0.2" y="10" relative="1" as="geometry">
            <mxPoint as="offset" />
          </mxGeometry>
        </mxCell>
        <mxCell id="edge-15" style="edgeStyle=orthogonalEdgeStyle;rounded=1;orthogonalLoop=1;jettySize=auto;html=1;strokeColor=#808080;strokeWidth=2;jumpStyle=arc;jumpSize=10;spacing=15;labelBackgroundColor=white;labelBorderColor=none" parent="1" source="24" target="29" edge="1">
          <mxGeometry relative="1" as="geometry" />
        </mxCell>
        <mxCell id="edge-15_label" value="triggers" style="edgeLabel;html=1;align=center;verticalAlign=middle;resizable=0;points=[];" parent="edge-15" vertex="1" connectable="0">
          <mxGeometry x="-0.2" y="10" relative="1" as="geometry">
            <mxPoint as="offset" />
          </mxGeometry>
        </mxCell>
        <mxCell id="edge-16" style="edgeStyle=orthogonalEdgeStyle;rounded=1;orthogonalLoop=1;jettySize=auto;html=1;strokeColor=#808080;strokeWidth=2;jumpStyle=arc;jumpSize=10;spacing=15;labelBackgroundColor=white;labelBorderColor=none" parent="1" source="25" target="26" edge="1">
          <mxGeometry relative="1" as="geometry" />
        </mxCell>
        <mxCell id="edge-16_label" value="executes" style="edgeLabel;html=1;align=center;verticalAlign=middle;resizable=0;points=[];" parent="edge-16" vertex="1" connectable="0">
          <mxGeometry x="-0.2" y="10" relative="1" as="geometry">
            <mxPoint as="offset" />
          </mxGeometry>
        </mxCell>
        <mxCell id="edge-19" style="edgeStyle=orthogonalEdgeStyle;rounded=1;orthogonalLoop=1;jettySize=auto;html=1;strokeColor=#808080;strokeWidth=2;jumpStyle=arc;jumpSize=10;spacing=15;labelBackgroundColor=white;labelBorderColor=none" parent="1" source="26" target="34" edge="1">
          <mxGeometry relative="1" as="geometry" />
        </mxCell>
        <mxCell id="edge-19_label" value="uses" style="edgeLabel;html=1;align=center;verticalAlign=middle;resizable=0;points=[];" parent="edge-19" vertex="1" connectable="0">
          <mxGeometry x="-0.2" y="10" relative="1" as="geometry">
            <mxPoint as="offset" />
          </mxGeometry>
        </mxCell>
        <mxCell id="edge-20" style="edgeStyle=orthogonalEdgeStyle;rounded=1;orthogonalLoop=1;jettySize=auto;html=1;strokeColor=#808080;strokeWidth=2;jumpStyle=arc;jumpSize=10;spacing=15;labelBackgroundColor=white;labelBorderColor=none" parent="1" source="26" target="35" edge="1">
          <mxGeometry relative="1" as="geometry" />
        </mxCell>
        <mxCell id="edge-20_label" value="loads" style="edgeLabel;html=1;align=center;verticalAlign=middle;resizable=0;points=[];" parent="edge-20" vertex="1" connectable="0">
          <mxGeometry x="-0.2" y="10" relative="1" as="geometry">
            <mxPoint as="offset" />
          </mxGeometry>
        </mxCell>
        <mxCell id="edge-17" style="edgeStyle=orthogonalEdgeStyle;rounded=1;orthogonalLoop=1;jettySize=auto;html=1;strokeColor=#808080;strokeWidth=2;jumpStyle=arc;jumpSize=10;spacing=15;labelBackgroundColor=white;labelBorderColor=none" parent="1" source="26" target="27" edge="1">
          <mxGeometry relative="1" as="geometry" />
        </mxCell>
        <mxCell id="edge-17_label" value="uses" style="edgeLabel;html=1;align=center;verticalAlign=middle;resizable=0;points=[];" parent="edge-17" vertex="1" connectable="0">
          <mxGeometry x="-0.2" y="10" relative="1" as="geometry">
            <mxPoint as="offset" />
          </mxGeometry>
        </mxCell>
        <mxCell id="edge-18" style="edgeStyle=orthogonalEdgeStyle;rounded=1;orthogonalLoop=1;jettySize=auto;html=1;strokeColor=#808080;strokeWidth=2;jumpStyle=arc;jumpSize=10;spacing=15;labelBackgroundColor=white;labelBorderColor=none" parent="1" source="26" target="28" edge="1">
          <mxGeometry relative="1" as="geometry" />
        </mxCell>
        <mxCell id="edge-18_label" value="loads" style="edgeLabel;html=1;align=center;verticalAlign=middle;resizable=0;points=[];" parent="edge-18" vertex="1" connectable="0">
          <mxGeometry x="-0.2" y="10" relative="1" as="geometry">
            <mxPoint as="offset" />
          </mxGeometry>
        </mxCell>
        <mxCell id="edge-22" style="edgeStyle=orthogonalEdgeStyle;rounded=1;orthogonalLoop=1;jettySize=auto;html=1;strokeColor=#808080;strokeWidth=2;jumpStyle=arc;jumpSize=10;spacing=15;labelBackgroundColor=white;labelBorderColor=none" parent="1" source="29" target="30" edge="1">
          <mxGeometry relative="1" as="geometry" />
        </mxCell>
        <mxCell id="edge-22_label" value="executes" style="edgeLabel;html=1;align=center;verticalAlign=middle;resizable=0;points=[];" parent="edge-22" vertex="1" connectable="0">
          <mxGeometry x="-0.2" y="10" relative="1" as="geometry">
            <mxPoint as="offset" />
          </mxGeometry>
        </mxCell>
        <mxCell id="edge-26" style="edgeStyle=orthogonalEdgeStyle;rounded=1;orthogonalLoop=1;jettySize=auto;html=1;strokeColor=#808080;strokeWidth=2;jumpStyle=arc;jumpSize=10;spacing=15;labelBackgroundColor=white;labelBorderColor=none" parent="1" source="30" target="34" edge="1">
          <mxGeometry relative="1" as="geometry" />
        </mxCell>
        <mxCell id="edge-26_label" value="uses" style="edgeLabel;html=1;align=center;verticalAlign=middle;resizable=0;points=[];" parent="edge-26" vertex="1" connectable="0">
          <mxGeometry x="-0.2" y="10" relative="1" as="geometry">
            <mxPoint as="offset" />
          </mxGeometry>
        </mxCell>
        <mxCell id="edge-27" style="edgeStyle=orthogonalEdgeStyle;rounded=1;orthogonalLoop=1;jettySize=auto;html=1;strokeColor=#808080;strokeWidth=2;jumpStyle=arc;jumpSize=10;spacing=15;labelBackgroundColor=white;labelBorderColor=none" parent="1" source="30" target="35" edge="1">
          <mxGeometry relative="1" as="geometry" />
        </mxCell>
        <mxCell id="edge-27_label" value="loads" style="edgeLabel;html=1;align=center;verticalAlign=middle;resizable=0;points=[];" parent="edge-27" vertex="1" connectable="0">
          <mxGeometry x="-0.2" y="10" relative="1" as="geometry">
            <mxPoint as="offset" />
          </mxGeometry>
        </mxCell>
        <mxCell id="edge-23" style="edgeStyle=orthogonalEdgeStyle;rounded=1;orthogonalLoop=1;jettySize=auto;html=1;strokeColor=#808080;strokeWidth=2;jumpStyle=arc;jumpSize=10;spacing=15;labelBackgroundColor=white;labelBorderColor=none" parent="1" source="30" target="31" edge="1">
          <mxGeometry relative="1" as="geometry" />
        </mxCell>
        <mxCell id="edge-23_label" value="uses" style="edgeLabel;html=1;align=center;verticalAlign=middle;resizable=0;points=[];" parent="edge-23" vertex="1" connectable="0">
          <mxGeometry x="-0.2" y="10" relative="1" as="geometry">
            <mxPoint as="offset" />
          </mxGeometry>
        </mxCell>
        <mxCell id="edge-24" style="edgeStyle=orthogonalEdgeStyle;rounded=1;orthogonalLoop=1;jettySize=auto;html=1;strokeColor=#808080;strokeWidth=2;jumpStyle=arc;jumpSize=10;spacing=15;labelBackgroundColor=white;labelBorderColor=none" parent="1" source="30" target="33" edge="1">
          <mxGeometry relative="1" as="geometry" />
        </mxCell>
        <mxCell id="edge-24_label" value="loads" style="edgeLabel;html=1;align=center;verticalAlign=middle;resizable=0;points=[];" parent="edge-24" vertex="1" connectable="0">
          <mxGeometry x="-0.2" y="10" relative="1" as="geometry">
            <mxPoint as="offset" />
          </mxGeometry>
        </mxCell>
        <mxCell id="edge-25" style="edgeStyle=orthogonalEdgeStyle;rounded=1;orthogonalLoop=1;jettySize=auto;html=1;strokeColor=#808080;strokeWidth=2;jumpStyle=arc;jumpSize=10;spacing=15;labelBackgroundColor=white;labelBorderColor=none" parent="1" source="30" target="32" edge="1">
          <mxGeometry relative="1" as="geometry" />
        </mxCell>
        <mxCell id="edge-25_label" value="uses" style="edgeLabel;html=1;align=center;verticalAlign=middle;resizable=0;points=[];" parent="edge-25" vertex="1" connectable="0">
          <mxGeometry x="-0.2" y="10" relative="1" as="geometry">
            <mxPoint as="offset" />
          </mxGeometry>
        </mxCell>
        <mxCell id="edge-21" style="edgeStyle=orthogonalEdgeStyle;rounded=1;orthogonalLoop=1;jettySize=auto;html=1;strokeColor=#808080;strokeWidth=2;jumpStyle=arc;jumpSize=10;spacing=15;labelBackgroundColor=white;labelBorderColor=none" parent="1" source="27" target="36" edge="1">
          <mxGeometry relative="1" as="geometry" />
        </mxCell>
        <mxCell id="edge-21_label" value="tests" style="edgeLabel;html=1;align=center;verticalAlign=middle;resizable=0;points=[];" parent="edge-21" vertex="1" connectable="0">
          <mxGeometry x="-0.2" y="10" relative="1" as="geometry">
            <mxPoint as="offset" />
          </mxGeometry>
        </mxCell>
        <mxCell id="edge-28" style="edgeStyle=orthogonalEdgeStyle;rounded=1;orthogonalLoop=1;jettySize=auto;html=1;strokeColor=#808080;strokeWidth=2;jumpStyle=arc;jumpSize=10;spacing=15;labelBackgroundColor=white;labelBorderColor=none" parent="1" source="31" target="37" edge="1">
          <mxGeometry relative="1" as="geometry" />
        </mxCell>
        <mxCell id="edge-28_label" value="interacts with" style="edgeLabel;html=1;align=center;verticalAlign=middle;resizable=0;points=[];" parent="edge-28" vertex="1" connectable="0">
          <mxGeometry x="-0.2" y="10" relative="1" as="geometry">
            <mxPoint as="offset" />
          </mxGeometry>
        </mxCell>
        <mxCell id="edge-29" style="edgeStyle=orthogonalEdgeStyle;rounded=1;orthogonalLoop=1;jettySize=auto;html=1;strokeColor=#808080;strokeWidth=2;jumpStyle=arc;jumpSize=10;spacing=15;labelBackgroundColor=white;labelBorderColor=none" parent="1" source="31" target="38" edge="1">
          <mxGeometry relative="1" as="geometry" />
        </mxCell>
        <mxCell id="edge-29_label" value="manages" style="edgeLabel;html=1;align=center;verticalAlign=middle;resizable=0;points=[];" parent="edge-29" vertex="1" connectable="0">
          <mxGeometry x="-0.2" y="10" relative="1" as="geometry">
            <mxPoint as="offset" />
          </mxGeometry>
        </mxCell>
        <mxCell id="edge-30" style="edgeStyle=orthogonalEdgeStyle;rounded=1;orthogonalLoop=1;jettySize=auto;html=1;strokeColor=#808080;strokeWidth=2;jumpStyle=arc;jumpSize=10;spacing=15;labelBackgroundColor=white;labelBorderColor=none" parent="1" source="32" target="38" edge="1">
          <mxGeometry relative="1" as="geometry" />
        </mxCell>
        <mxCell id="edge-30_label" value="defines" style="edgeLabel;html=1;align=center;verticalAlign=middle;resizable=0;points=[];" parent="edge-30" vertex="1" connectable="0">
          <mxGeometry x="-0.2" y="10" relative="1" as="geometry">
            <mxPoint as="offset" />
          </mxGeometry>
        </mxCell>
      </root>
    </mxGraphModel>
  </diagram>
</mxfile>
